<?xml version="1.0" encoding="UTF-8" standalone="no"?>
<svg
   xmlns:dc="http://purl.org/dc/elements/1.1/"
   xmlns:cc="http://creativecommons.org/ns#"
   xmlns:rdf="http://www.w3.org/1999/02/22-rdf-syntax-ns#"
   xmlns:svg="http://www.w3.org/2000/svg"
   xmlns="http://www.w3.org/2000/svg"
   viewBox="0 0 795 241.25"
   height="241.25"
   width="795"
   xml:space="preserve"
   version="1.1"
   id="svg2"><metadata
     id="metadata8"><rdf:RDF><cc:Work
         rdf:about=""><dc:format>image/svg+xml</dc:format><dc:type
           rdf:resource="http://purl.org/dc/dcmitype/StillImage" /><dc:title></dc:title></cc:Work></rdf:RDF></metadata><defs
     id="defs6" /><g
     transform="matrix(1.25,0,0,-1.25,0,241.25)"
     id="g10"><g
       transform="scale(0.1,0.1)"
       id="g12"><path
         id="path14"
         style="fill:none;stroke:#000000;stroke-width:4.5;stroke-linecap:butt;stroke-linejoin:miter;stroke-miterlimit:10;stroke-dasharray:none;stroke-opacity:1"
         d="m 7,495 900,0 0,855 -900,0 0,-855 z" /><path
         id="path16"
         style="fill:none;stroke:#000000;stroke-width:4.5;stroke-linecap:butt;stroke-linejoin:miter;stroke-miterlimit:10;stroke-dasharray:none;stroke-opacity:1"
         d="m 907,495 900,0 0,855 -900,0 0,-855 z" /><path
         id="path18"
         style="fill:none;stroke:#000000;stroke-width:4.5;stroke-linecap:butt;stroke-linejoin:miter;stroke-miterlimit:10;stroke-dasharray:none;stroke-opacity:1"
         d="m 1807,495 1845,0 0,855 -1845,0 0,-855 z" /><path
         id="path20"
         style="fill:none;stroke:#000000;stroke-width:4.5;stroke-linecap:butt;stroke-linejoin:miter;stroke-miterlimit:10;stroke-dasharray:none;stroke-opacity:1"
         d="m 3652,495 900,0 0,855 -900,0 0,-855 z" /><path
         id="path22"
         style="fill:none;stroke:#000000;stroke-width:4.5;stroke-linecap:butt;stroke-linejoin:miter;stroke-miterlimit:10;stroke-dasharray:none;stroke-opacity:1"
         d="m 4552,495 900,0 0,855 -900,0 0,-855 z" /><path
         id="path24"
         style="fill:none;stroke:#000000;stroke-width:4.5;stroke-linecap:butt;stroke-linejoin:miter;stroke-miterlimit:10;stroke-dasharray:none;stroke-opacity:1"
         d="m 4552,1485 -90,90 -3465,0 -90,-90" /><path
         id="path26"
         style="fill:none;stroke:#000000;stroke-width:4.5;stroke-linecap:butt;stroke-linejoin:miter;stroke-miterlimit:10;stroke-dasharray:none;stroke-opacity:1"
         d="m 6352,1485 -90,90 -1620,0 -90,-90" /><path
         id="path28"
         style="fill:none;stroke:#000000;stroke-width:4.5;stroke-linecap:butt;stroke-linejoin:miter;stroke-miterlimit:10;stroke-dasharray:none;stroke-opacity:1"
         d="m 7,360 90,-90 1620,0 90,90" /><path
         id="path30"
         style="fill:none;stroke:#000000;stroke-width:4.5;stroke-linecap:butt;stroke-linejoin:miter;stroke-miterlimit:10;stroke-dasharray:none;stroke-opacity:1"
         d="m 3652,360 90,-90 1620,0 90,90" /><path
         id="path32"
         style="fill:none;stroke:#000000;stroke-width:4.5;stroke-linecap:butt;stroke-linejoin:miter;stroke-miterlimit:10;stroke-dasharray:9, 27;stroke-dashoffset:27;stroke-opacity:1"
         d="m 5452,495 900,0 0,855 -900,0 0,-855 z" /><path
         id="path34"
         style="fill:none;stroke:#000000;stroke-width:4.5;stroke-linecap:butt;stroke-linejoin:miter;stroke-miterlimit:10;stroke-dasharray:none;stroke-opacity:1"
         d="m 907,1485 -90,90 -720,0 -90,-90" /><g
         transform="scale(10,10)"
         id="g36"><text
           id="text38"
           style="font-variant:normal;font-weight:normal;font-size:16.20000076px;font-family:Times;-inkscape-font-specification:Times-Roman;writing-mode:lr-tb;fill:#000000;fill-opacity:1;fill-rule:nonzero;stroke:none"
           transform="matrix(1,0,0,-1,396.7,90)"><tspan
             id="tspan40"
             y="0"
             x="0 9.0072002 18.905399 89.999908 99.007111 108.90531 -364.5 -355.4928 -345.5946 -157.49963 -146.69424 -138.59424 -130.49425 -122.39424 -114.29424 -107.10144 -102.59784 -94.497841 -274.5 -265.4928 -255.5946">PL3PL4PL1ConductorPL2</tspan><tspan
             id="tspan42"
             y="81"
             x="-319.5">h</tspan><tspan
             id="tspan44"
             y="-85.5"
             x="-355.5">H</tspan></text>
<text
           id="text46"
           style="font-variant:normal;font-weight:normal;font-size:11.69999981px;font-family:Times;-inkscape-font-specification:Times-Roman;writing-mode:lr-tb;fill:#000000;fill-opacity:1;fill-rule:nonzero;stroke:none"
           transform="matrix(1,0,0,-1,86.2,4.5)"><tspan
             id="tspan48"
             y="0"
             x="0 7.1487002">LC</tspan><tspan
             id="tspan50"
             y="-166.5"
             x="-31.5">L</tspan><tspan
             id="tspan52"
             y="-180"
             x="-31.5 -25.65">00</tspan></text>
<text
           id="text54"
           style="font-variant:normal;font-weight:normal;font-size:16.20000076px;font-family:Times;-inkscape-font-specification:Times-Roman;writing-mode:lr-tb;fill:#000000;fill-opacity:1;fill-rule:nonzero;stroke:none"
           transform="matrix(1,0,0,-1,450.7,4.5)"><tspan
             id="tspan56"
             y="0"
             x="0">h</tspan></text>
<text
           id="text58"
           style="font-variant:normal;font-weight:normal;font-size:11.69999981px;font-family:Times;-inkscape-font-specification:Times-Roman;writing-mode:lr-tb;fill:#000000;fill-opacity:1;fill-rule:nonzero;stroke:none"
           transform="matrix(1,0,0,-1,459.7,0)"><tspan
             id="tspan60"
             y="0"
             x="0 7.8038998">CR</tspan><tspan
             id="tspan62"
             y="-175.5"
             x="72 77.849998">10</tspan><tspan
             id="tspan64"
             y="-162"
             x="72">L</tspan></text>
<text
           id="text66"
           style="font-variant:normal;font-weight:normal;font-size:16.20000076px;font-family:Times;-inkscape-font-specification:Times-Roman;writing-mode:lr-tb;fill:#000000;fill-opacity:1;fill-rule:nonzero;stroke:none"
           transform="matrix(1,0,0,-1,518.2,166.5)"><tspan
             id="tspan68"
             y="0"
             x="0 11.6964 23.846399 27.8964 31.9464">H , H</tspan></text>
<text
           id="text70"
           style="font-variant:normal;font-weight:normal;font-size:11.69999981px;font-family:Times;-inkscape-font-specification:Times-Roman;writing-mode:lr-tb;fill:#000000;fill-opacity:1;fill-rule:nonzero;stroke:none"
           transform="matrix(1,0,0,-1,563.2,162)"><tspan
             id="tspan72"
             y="0"
             x="0">R</tspan><tspan
             id="tspan74"
             y="-13.5"
             x="0 5.8499999">01</tspan><tspan
             id="tspan76"
             y="-9"
             x="-283.5">C</tspan></text>
<text
           id="text78"
           style="font-variant:normal;font-weight:normal;font-size:16.20000076px;font-family:Times;-inkscape-font-specification:Times-Roman;writing-mode:lr-tb;fill:#000000;fill-opacity:1;fill-rule:nonzero;stroke:none"
           transform="matrix(1,0,0,-1,266.2,175.5)"><tspan
             id="tspan80"
             y="0"
             x="0">H</tspan></text>
</g><g
         transform="scale(10,10)"
         id="g82"><text
           id="text84"
           style="font-variant:normal;font-weight:normal;font-size:16.20000076px;font-family:Times;-inkscape-font-specification:Times-Roman;writing-mode:lr-tb;fill:#525552;fill-opacity:1;fill-rule:nonzero;stroke:none"
           transform="matrix(1,0,0,-1,576.7,90)"><tspan
             id="tspan86"
             y="0"
             x="0 9.0072002 18.905399">PL1</tspan></text>
</g></g></g></svg>